<svg xmlns="http://www.w3.org/2000/svg" viewBox="0 0 24 24" fill="none" stroke="currentColor" stroke-width="2" stroke-linecap="round" stroke-linejoin="round">
  <defs>
    <style>
      @media (prefers-color-scheme: dark) {
        :root { color: #60a5fa; }
      }
      @media (prefers-color-scheme: light) {
        :root { color: #2563eb; }
      }
    </style>
  </defs>
  <path d="M16.5 9.4 7.55 4.24"></path>
  <path d="M21 16V8a2 2 0 0 0-1-1.73l-7-4a2 2 0 0 0-2 0l-7 4A2 2 0 0 0 3 8v8a2 2 0 0 0 1 1.73l7 4a2 2 0 0 0 2 0l7-4A2 2 0 0 0 21 16z"></path>
  <polyline points="3.29 7 12 12 20.71 7"></polyline>
  <line x1="12" y1="22" x2="12" y2="12"></line>
</svg>
